<svg width="15" height="14" viewBox="0 0 15 14" fill="none" xmlns="http://www.w3.org/2000/svg">
<g clip-path="url(#clip0_600_2984)">
<path d="M0.394592 3.07896C0.0907594 2.77513 0.0907594 2.28171 0.394592 1.97787C0.698425 1.67404 1.19185 1.67404 1.49568 1.97787L6.16255 6.64474C6.46638 6.94858 6.46638 7.442 6.16255 7.74583L1.49568 12.4127C1.19185 12.7165 0.698425 12.7165 0.394592 12.4127C0.0907594 12.1089 0.0907594 11.6154 0.394592 11.3116L4.5097 7.1965L0.394592 3.07896ZM6.3886 11.0856H13.3889C13.8191 11.0856 14.1667 11.4331 14.1667 11.8634C14.1667 12.2936 13.8191 12.6412 13.3889 12.6412H6.3886C5.95838 12.6412 5.61079 12.2936 5.61079 11.8634C5.61079 11.4331 5.95838 11.0856 6.3886 11.0856Z" fill="#AAAAAA"/>
</g>
<defs>
<clipPath id="clip0_600_2984">
<rect width="14" height="14" fill="white" transform="translate(0.166718)"/>
</clipPath>
</defs>
</svg>
