<svg width="15" height="14" viewBox="0 0 15 14" fill="none" xmlns="http://www.w3.org/2000/svg">
<path d="M3.66672 0C2.2175 0 1.04172 1.17578 1.04172 2.625V11.375C1.04172 12.8242 2.2175 14 3.66672 14H11.5417H12.4167C12.9007 14 13.2917 13.609 13.2917 13.125C13.2917 12.641 12.9007 12.25 12.4167 12.25V10.5C12.9007 10.5 13.2917 10.109 13.2917 9.625V0.875C13.2917 0.391016 12.9007 0 12.4167 0H11.5417H3.66672ZM3.66672 10.5H10.6667V12.25H3.66672C3.18273 12.25 2.79172 11.859 2.79172 11.375C2.79172 10.891 3.18273 10.5 3.66672 10.5ZM4.54172 3.9375C4.54172 3.69688 4.73859 3.5 4.97922 3.5H10.2292C10.4698 3.5 10.6667 3.69688 10.6667 3.9375C10.6667 4.17812 10.4698 4.375 10.2292 4.375H4.97922C4.73859 4.375 4.54172 4.17812 4.54172 3.9375ZM4.97922 5.25H10.2292C10.4698 5.25 10.6667 5.44688 10.6667 5.6875C10.6667 5.92812 10.4698 6.125 10.2292 6.125H4.97922C4.73859 6.125 4.54172 5.92812 4.54172 5.6875C4.54172 5.44688 4.73859 5.25 4.97922 5.25Z" fill="#AAAAAA"/>
</svg>
