<svg width="12" height="12" viewBox="0 0 12 12" fill="none" xmlns="http://www.w3.org/2000/svg">
<g clip-path="url(#clip0_600_2996)">
<path d="M11.7116 3.35882L11.1267 2.7892C10.9612 2.61688 10.7357 2.51488 10.4969 2.50439C10.3584 2.49066 10.2186 2.50924 10.0885 2.55866C9.95842 2.60808 9.84156 2.68699 9.74713 2.7892L5.99817 6.49175L2.24921 2.7892C2.15478 2.68699 2.03792 2.60808 1.90782 2.55866C1.77772 2.50924 1.63792 2.49066 1.49942 2.50439C1.26066 2.51488 1.03511 2.61688 0.869593 2.7892L0.299751 3.35882C0.119608 3.52643 0.0120039 3.75769 -0.000165664 4.0034C-0.00290676 4.13316 0.0224796 4.26197 0.07425 4.381C0.126021 4.50003 0.202948 4.60644 0.299751 4.69294L5.30836 9.71461C5.39626 9.80865 5.50333 9.88275 5.62233 9.93188C5.74133 9.98101 5.8695 10.004 5.99817 9.99942C6.12886 10.0024 6.25879 9.97872 6.37999 9.92975C6.50118 9.88077 6.61109 9.80756 6.70297 9.71461L11.7116 4.73791C11.8117 4.64511 11.8894 4.53075 11.9388 4.40349C11.9881 4.27624 12.0079 4.13941 11.9965 4.0034C11.9883 3.75984 11.8862 3.52889 11.7116 3.35882Z" fill="#AAAAAA"/>
</g>
<defs>
<clipPath id="clip0_600_2996">
<rect width="12" height="12" fill="white"/>
</clipPath>
</defs>
</svg>
