<svg width="97" height="22" viewBox="0 0 97 22" fill="none" xmlns="http://www.w3.org/2000/svg">
<g clip-path="url(#clip0_586_2966)">
<path d="M22.0833 6.6308V9.69924H16.2288C15.33 9.69924 14.4586 10.0154 13.7717 10.5903L10.0941 13.6655C8.97902 14.5954 7.56762 15.1081 6.11278 15.1081H0V12.0372L5.85452 12.0396C6.75086 12.0396 7.62426 11.7235 8.31164 11.1486L11.9893 8.07334C13.1019 7.14342 14.5157 6.6308 15.9681 6.6308H22.0824H22.0833Z" fill="white"/>
<path d="M22.0834 12.0396V15.1081H17.9595C17.2194 15.1081 16.4998 15.3692 15.932 15.843L10.8586 20.0864V16.0788L14.3986 13.1203C15.231 12.4219 16.2879 12.0396 17.3776 12.0396H22.0829H22.0834Z" fill="white"/>
<path d="M11.2243 1.65V5.6576L7.6843 8.61856C6.84997 9.31698 5.79252 9.69925 4.70529 9.69925H0V6.63081H4.1214C4.86152 6.63081 5.58113 6.36964 6.14891 5.89592L11.2243 1.65Z" fill="white"/>
</g>
<g clip-path="url(#clip1_586_2966)">
<path d="M93.0757 12.7411C94.158 12.0174 94.8024 10.8133 94.8024 9.5155V7.89103C94.8024 5.74854 93.0523 4.0051 90.9017 4.0051H84.9977V17.6636H87.8609V13.453H90.2553L92.1462 17.6636H95.199L93.0762 12.7411H93.0757ZM92.0497 9.27756C92.0497 10.1619 91.3257 10.8832 90.4355 10.8832H87.8604V6.61159H90.4355C91.3257 6.61159 92.0497 7.33286 92.0497 8.21969V9.27706V9.27756Z" fill="white"/>
<path d="M80.4591 3.71065C80.2088 3.65711 79.9486 3.62886 79.6863 3.62886H77.4487C77.2004 3.62886 76.9894 3.65216 76.7247 3.71065C75.0353 4.07005 73.8102 5.57802 73.8102 7.30064V14.319C73.8102 16.0392 75.0353 17.5491 76.7247 17.9065C76.9919 17.9625 77.2028 17.9858 77.4487 17.9858H79.6863C79.9531 17.9858 80.2133 17.9601 80.4571 17.9065C82.146 17.5491 83.3715 16.0392 83.3715 14.319V7.30064C83.3715 5.57802 82.146 4.07005 80.4591 3.71065ZM80.5576 14.0598C80.5576 14.837 79.9227 15.4696 79.1425 15.4696H78.0393C77.2591 15.4696 76.6241 14.837 76.6241 14.0598V7.55494C76.6241 6.78014 77.2591 6.1476 78.0393 6.1476H79.1425C79.9227 6.1476 80.5576 6.78014 80.5576 7.55494V14.0598Z" fill="white"/>
<path d="M71.3596 10.6145C72.0931 9.88135 72.4961 8.90826 72.4961 7.87667C72.4961 5.74111 70.7531 4.00462 68.6094 4.00462H62.8438V17.6636H68.6074C70.7511 17.6636 72.4966 15.9132 72.4966 13.7633V13.5953C72.4966 12.5101 72.0374 11.4691 71.2337 10.7335C71.276 10.6963 71.3183 10.6567 71.3601 10.6145H71.3596ZM65.5069 6.49014H68.283C69.1384 6.49014 69.834 7.18365 69.834 8.03282C69.834 8.44575 69.6723 8.8334 69.3797 9.12736C69.0866 9.41934 68.698 9.57797 68.283 9.57797H65.5069V6.49014ZM68.283 15.077H65.5069V11.9891H68.283C69.1384 11.9891 69.834 12.6822 69.834 13.5318C69.834 13.9447 69.6723 14.3324 69.3797 14.6264C69.0866 14.9159 68.698 15.077 68.283 15.077Z" fill="white"/>
<path d="M59.3805 12.7411C60.4628 12.0174 61.1071 10.8133 61.1071 9.5155V7.89103C61.1071 5.74854 59.3596 4.0051 57.2085 4.0051H51.302V17.6636H54.1652V13.453H56.5596L58.4505 17.6636H61.5032L59.3805 12.7411ZM58.3545 9.27756C58.3545 10.1619 57.6304 10.8832 56.7402 10.8832H54.1652V6.61159H56.7402C57.6304 6.61159 58.3545 7.33286 58.3545 8.21969V9.27706V9.27756Z" fill="white"/>
<path d="M45.8315 3.64274H43.4535C41.4223 3.64274 39.7703 5.2905 39.7703 7.31402V17.6631H42.727V13.457H46.5575V17.6631H49.5142V7.31452C49.5142 5.291 47.8627 3.64323 45.831 3.64323L45.8315 3.64274ZM46.558 10.8832H42.7275V7.72497C42.7275 6.98487 43.3321 6.38505 44.0725 6.38505H45.2135C45.9564 6.38505 46.5585 6.98487 46.5585 7.72497V10.8832H46.558Z" fill="white"/>
<path d="M37.6291 4.00462V17.6611H34.6744V13.4575H30.8394V17.6611H27.8872V4.00462H30.8394V10.8857H34.6744V4.00462H37.6291Z" fill="white"/>
</g>
<defs>
<clipPath id="clip0_586_2966">
<rect width="22.0833" height="22" fill="white"/>
</clipPath>
<clipPath id="clip1_586_2966">
<rect width="67.9063" height="15.0333" fill="white" transform="translate(27.6042 3.3)"/>
</clipPath>
</defs>
</svg>
