<svg width="16" height="16" viewBox="0 0 16 16" fill="none" xmlns="http://www.w3.org/2000/svg">
<path d="M8.8 4.97777C8.8 6.74527 7.3675 8.17777 5.6 8.17777C3.8325 8.17777 2.4 6.74527 2.4 4.97777C2.4 3.21027 3.8325 1.77777 5.6 1.77777C7.3675 1.77777 8.8 3.21027 8.8 4.97777ZM0 13.8353C0 11.3728 1.995 9.37777 4.4575 9.37777H6.7425C9.205 9.37777 11.2 11.3728 11.2 13.8353C11.2 14.2453 10.8675 14.5778 10.4575 14.5778H0.7425C0.3325 14.5778 0 14.2453 0 13.8353ZM12.6 9.57777V7.97777H11C10.6675 7.97777 10.4 7.71027 10.4 7.37777C10.4 7.04527 10.6675 6.77777 11 6.77777H12.6V5.17777C12.6 4.84527 12.8675 4.57777 13.2 4.57777C13.5325 4.57777 13.8 4.84527 13.8 5.17777V6.77777H15.4C15.7325 6.77777 16 7.04527 16 7.37777C16 7.71027 15.7325 7.97777 15.4 7.97777H13.8V9.57777C13.8 9.91027 13.5325 10.1778 13.2 10.1778C12.8675 10.1778 12.6 9.91027 12.6 9.57777Z" fill="black"/>
</svg>
