<svg width="12" height="14" viewBox="0 0 12 14" fill="none" xmlns="http://www.w3.org/2000/svg">
<path d="M10.9 14H11.6V12.6H10.9V11.9C10.8987 11.0496 10.6765 10.2142 10.2552 9.47548C9.83398 8.73678 9.22809 8.12016 8.49689 7.686C8.24839 7.539 8.09999 7.3031 8.09999 7.0553V6.9447C8.09999 6.6969 8.24839 6.461 8.49619 6.3147C9.22752 5.88046 9.83355 5.26374 10.2549 4.52493C10.6763 3.78611 10.8986 2.95053 10.9 2.1V1.4H11.6V0H0.399994V1.4H1.09999V2.1C1.10141 2.95053 1.32369 3.78611 1.74507 4.52493C2.16644 5.26374 2.77246 5.88046 3.50379 6.3147C3.75159 6.461 3.89999 6.6962 3.89999 6.9447V7.0553C3.89999 7.3031 3.75159 7.539 3.50379 7.6853C2.77246 8.11954 2.16644 8.73625 1.74507 9.47507C1.32369 10.2139 1.10141 11.0495 1.09999 11.9V12.6H0.399994V14H10.9ZM9.49999 1.4V2.1C9.49893 2.85757 9.25235 3.5944 8.79719 4.2H3.20279C2.74764 3.5944 2.50105 2.85757 2.49999 2.1V1.4H9.49999ZM4.21499 8.8914C4.89469 8.4896 5.29999 7.8036 5.29999 7.0553V7H6.69999V7.0553C6.69999 7.8029 7.10529 8.4896 7.78569 8.8914C8.41467 9.26571 8.90987 9.82851 9.20109 10.5H2.79889C3.09018 9.82833 3.58567 9.26549 4.21499 8.8914V8.8914Z" fill="#DB9000"/>
</svg>
