<svg width="14" height="14" viewBox="0 0 14 14" fill="none" xmlns="http://www.w3.org/2000/svg">
<path d="M10.0406 11.2793L2.7207 3.95938C2.1082 4.81523 1.75 5.86523 1.75 7C1.75 9.89844 4.10156 12.25 7 12.25C8.13477 12.25 9.18477 11.8918 10.0406 11.2793ZM11.2793 10.0406C11.8918 9.18477 12.25 8.13477 12.25 7C12.25 4.10156 9.89844 1.75 7 1.75C5.86523 1.75 4.81523 2.1082 3.95938 2.7207L11.2793 10.0406ZM14 7C14 10.8664 10.8664 14 7 14C3.13359 14 0 10.8664 0 7C0 3.13359 3.13359 0 7 0C10.8664 0 14 3.13359 14 7Z" fill="#AAAAAA"/>
</svg>
