<svg width="16" height="16" viewBox="0 0 16 16" fill="none" xmlns="http://www.w3.org/2000/svg">
<path d="M10.7062 0.293945C10.3156 -0.0966797 9.68125 -0.0966797 9.29062 0.293945C8.9 0.68457 8.9 1.31895 9.29062 1.70957L9.58437 2.00332L0.878125 10.7064C0.315625 11.2689 0 12.0314 0 12.8283V13.0002C0 14.6564 1.34375 16.0002 3 16.0002H3.17187C3.96875 16.0002 4.73125 15.6846 5.29375 15.1221L14 6.41582L14.2937 6.70957C14.6844 7.1002 15.3187 7.1002 15.7094 6.70957C16.1 6.31895 16.1 5.68457 15.7094 5.29395L14.7094 4.29395L11.7094 1.29395L10.7094 0.293945H10.7062ZM6.41562 8.0002L11 3.41582L12.5844 5.0002L9.58437 8.0002H6.41562Z" fill="#2F80ED"/>
</svg>
