<svg width="14" height="14" viewBox="0 0 14 14" fill="none" xmlns="http://www.w3.org/2000/svg">
<g clip-path="url(#clip0_600_2991)">
<path d="M9.51121 6.25497C8.31944 6.05403 7.5169 4.926 7.71783 3.73423C7.91877 2.54245 9.0468 1.73992 10.2386 1.94085C11.4303 2.14179 12.2329 3.26982 12.0319 4.46159C11.831 5.65336 10.703 6.4559 9.51121 6.25497ZM9.22026 7.98061C11.3638 8.34202 13.3962 6.89611 13.7576 4.75253C14.119 2.60896 12.6731 0.576615 10.5295 0.215207C8.38594 -0.1462 6.3536 1.29971 5.99219 3.44328C5.86399 4.20365 5.96283 4.9496 6.2394 5.61183L0.797754 9.48328C0.403889 9.76349 0.311605 10.3108 0.59182 10.7047L2.02652 12.7213C2.30674 13.1152 2.85409 13.2075 3.24795 12.9272C3.64182 12.647 3.7341 12.0997 3.45389 11.7058L2.52582 10.4013L3.11504 9.98212L4.04311 11.2866C4.32333 11.6805 4.87068 11.7728 5.26454 11.4925C5.65841 11.2123 5.75069 10.665 5.47048 10.2711L4.54241 8.96662L7.25535 7.0365C7.79029 7.51491 8.4626 7.85287 9.22296 7.98107L9.22026 7.98061Z" fill="#AAAAAA"/>
</g>
<defs>
<clipPath id="clip0_600_2991">
<rect width="14" height="14" fill="white"/>
</clipPath>
</defs>
</svg>
