<svg width="16" height="16" viewBox="0 0 16 16" fill="none" xmlns="http://www.w3.org/2000/svg">
<path d="M7.99886 0C8.27771 0 8.53232 0.159129 8.65356 0.409794L10.7328 4.69202L15.3794 5.38006C15.6522 5.41947 15.8765 5.61042 15.9644 5.87109C16.0493 6.13479 15.9795 6.42273 15.7856 6.61369L12.4151 9.95387L13.2122 14.6671C13.2577 14.9399 13.1455 15.2188 12.9182 15.3794C12.6939 15.54 12.3696 15.5613 12.1514 15.4309L7.99886 13.2122L3.82211 15.4309C3.60388 15.5613 3.30684 15.54 3.07951 15.3794C2.85522 15.2188 2.74307 14.9399 2.76125 14.6671L3.58266 9.95387L0.2155 6.61369C0.0196959 6.42273 -0.0497145 6.13479 0.0363665 5.87109C0.122144 5.61042 0.348562 5.41947 0.621051 5.38006L5.26488 4.69202L7.34416 0.409794C7.46843 0.159098 7.72001 0 7.99886 0ZM7.99886 2.39299L6.40757 5.67407C6.30149 5.88927 6.09538 6.04083 5.85896 6.0772L2.27265 6.6046L4.87691 9.18399C5.04361 9.3507 5.11939 9.59015 5.07999 9.82354L4.46772 13.4486L7.65635 11.7452C7.87156 11.63 8.12919 11.63 8.34136 11.7452L11.53 13.4486L10.9177 9.82354C10.8783 9.59015 10.9571 9.3507 11.1238 9.18399L13.7275 6.6046L10.1418 6.0772C9.90234 6.04083 9.69623 5.88927 9.59318 5.67407L7.99886 2.39299Z" fill="#DDDDDD"/>
</svg>
