<svg width="12" height="8" viewBox="0 0 12 8" fill="none" xmlns="http://www.w3.org/2000/svg">
<path d="M11.7116 1.35882L11.1267 0.789202C10.9612 0.616877 10.7357 0.514883 10.4969 0.504391C10.3584 0.490661 10.2186 0.509236 10.0885 0.558656C9.95842 0.608076 9.84156 0.686993 9.74713 0.789202L5.99817 4.49175L2.24921 0.789202C2.15478 0.686993 2.03792 0.608076 1.90782 0.558656C1.77772 0.509236 1.63792 0.490661 1.49942 0.504391C1.26066 0.514883 1.03511 0.616877 0.869593 0.789202L0.299751 1.35882C0.119608 1.52643 0.0120039 1.75769 -0.000165664 2.0034C-0.00290676 2.13316 0.0224796 2.26197 0.07425 2.381C0.126021 2.50003 0.202948 2.60644 0.299751 2.69294L5.30836 7.71461C5.39626 7.80865 5.50333 7.88275 5.62233 7.93188C5.74133 7.98101 5.8695 8.00405 5.99817 7.99942C6.12886 8.00243 6.25879 7.97872 6.37999 7.92975C6.50118 7.88077 6.61109 7.80756 6.70297 7.71461L11.7116 2.73791C11.8117 2.64511 11.8894 2.53075 11.9388 2.40349C11.9881 2.27624 12.0079 2.13941 11.9965 2.0034C11.9883 1.75984 11.8862 1.52889 11.7116 1.35882Z" fill="#AAAAAA"/>
</svg>
