<svg width="14" height="14" viewBox="0 0 14 14" fill="none" xmlns="http://www.w3.org/2000/svg">
<path d="M13.8343 11.6906L8.20343 0.773493C8.10064 0.543282 7.93287 0.347668 7.72049 0.210373C7.5081 0.0730785 7.26021 0 7.00688 0C6.75355 0 6.50565 0.0730785 6.29327 0.210373C6.08088 0.347668 5.91312 0.543282 5.81032 0.773493L0.179487 11.6906C0.0613948 11.9302 0 12.1936 0 12.4604C0 12.7273 0.0613948 12.9906 0.179487 13.2302C0.289645 13.4488 0.455478 13.6349 0.660473 13.77C0.865469 13.905 1.10247 13.9843 1.34789 14H12.6096C12.8599 13.9892 13.1027 13.9121 13.3131 13.7768C13.5234 13.6415 13.6936 13.4528 13.8061 13.2302C13.9286 12.9927 13.9948 12.7305 13.9997 12.4637C14.0046 12.1968 13.948 11.9324 13.8343 11.6906ZM6.97872 12.1245C6.79778 12.1272 6.62008 12.0766 6.4681 11.9789C6.31611 11.8813 6.19667 11.741 6.12486 11.5758C6.05305 11.4107 6.03212 11.2281 6.06469 11.0511C6.09727 10.8741 6.18189 10.7107 6.30787 10.5815C6.43385 10.4523 6.59551 10.3632 6.77244 10.3254C6.94936 10.2876 7.13358 10.3028 7.30182 10.3691C7.47006 10.4353 7.61475 10.5497 7.7176 10.6978C7.82046 10.8458 7.87685 11.0208 7.87966 11.2007C7.88152 11.3202 7.85969 11.4389 7.81542 11.55C7.77115 11.6611 7.7053 11.7624 7.62164 11.8482C7.53798 11.9339 7.43814 12.0025 7.32783 12.0499C7.21751 12.0973 7.09889 12.1227 6.97872 12.1245ZM6.97872 9.32523C6.85856 9.32341 6.73993 9.29807 6.62962 9.25066C6.5193 9.20324 6.41947 9.13469 6.3358 9.04891C6.25214 8.96313 6.18629 8.8618 6.14202 8.75071C6.09775 8.63962 6.07593 8.52095 6.07779 8.40148V4.66447C6.07187 4.6059 6.0784 4.54675 6.09695 4.49086C6.11551 4.43497 6.14568 4.38358 6.1855 4.34002C6.22532 4.29647 6.27391 4.26173 6.3281 4.23805C6.3823 4.21438 6.4409 4.20229 6.5001 4.20259H7.45734C7.51401 4.20256 7.5701 4.21386 7.62227 4.23583C7.67445 4.25781 7.72165 4.28999 7.76105 4.33048C7.80046 4.37096 7.83127 4.41892 7.85164 4.47149C7.87202 4.52406 7.88155 4.58017 7.87966 4.63647V8.40148C7.87968 8.64036 7.78522 8.86966 7.61665 9.03988C7.44809 9.21009 7.21895 9.30756 6.97872 9.31124V9.32523Z" fill="#CD3A4C"/>
</svg>
