<svg width="8" height="6" viewBox="0 0 8 6" fill="none" xmlns="http://www.w3.org/2000/svg">
<path d="M7.80772 1.23921L7.41783 0.859465C7.30748 0.744582 7.15712 0.676586 6.99795 0.669591C6.90561 0.660438 6.81241 0.672821 6.72568 0.705768C6.63894 0.738715 6.56104 0.791326 6.49809 0.859465L3.99878 3.32783L1.49947 0.859465C1.43652 0.791326 1.35862 0.738715 1.27188 0.705768C1.18514 0.672821 1.09195 0.660438 0.999612 0.669591C0.84044 0.676586 0.690075 0.744582 0.579729 0.859465L0.199834 1.23921C0.0797387 1.35095 0.00800259 1.50513 -0.000110442 1.66893C-0.00193784 1.75544 0.0149864 1.84131 0.0495 1.92066C0.0840137 2.00001 0.135299 2.07096 0.199834 2.12862L3.53891 5.4764C3.59751 5.5391 3.66888 5.5885 3.74822 5.62125C3.82755 5.65401 3.913 5.66936 3.99878 5.66628C4.08591 5.66828 4.17253 5.65248 4.25332 5.61983C4.33412 5.58718 4.40739 5.53837 4.46865 5.4764L7.80772 2.1586C7.87448 2.09674 7.92627 2.0205 7.95918 1.93566C7.99209 1.85082 8.00525 1.75961 7.99767 1.66893C7.99219 1.50656 7.92413 1.35259 7.80772 1.23921Z" fill="#555555"/>
</svg>
